<svg width="405" height="45" viewBox="0 0 405 45" fill="none" xmlns="http://www.w3.org/2000/svg">
<path d="M0.71875 42.8438C3.07292 42.5938 4.59375 42.1771 5.28125 41.5938C5.98958 40.9896 6.34375 39.4792 6.34375 37.0626V8.59381C6.34375 6.32298 6 4.84381 5.3125 4.15631C4.625 3.44798 3.09375 3.01048 0.71875 2.84381V1.65631H18.8125V2.84381C16.4583 2.96881 14.875 3.35423 14.0625 4.00006C13.2708 4.64589 12.875 6.03131 12.875 8.15631V38.9063C12.875 39.6146 12.9896 40.1771 13.2188 40.5938C13.4688 40.9896 14 41.2396 14.8125 41.3438C15.2917 41.4063 15.7917 41.448 16.3125 41.4688C16.8542 41.4896 17.8542 41.5001 19.3125 41.5001C25 41.5001 28.8438 41.0313 30.8438 40.0938C32.8438 39.1563 34.7812 36.7605 36.6562 32.9063H38.2812L35.1562 44.0001H0.71875V42.8438ZM74.0875 27.5626L66.6813 9.93756L59.3688 27.5626H74.0875ZM46.4625 44.0001V42.8438C48.1083 42.6563 49.3375 42.0313 50.15 40.9688C50.9833 39.9063 52.4 37.0209 54.4 32.3126L67.7438 0.906311H68.9938L84.9313 37.1876C85.9938 39.6042 86.8375 41.1042 87.4625 41.6876C88.1083 42.2501 89.1813 42.6355 90.6813 42.8438V44.0001H74.4V42.8438C76.275 42.6771 77.4833 42.4792 78.025 42.2501C78.5667 42.0001 78.8375 41.4063 78.8375 40.4688C78.8375 40.1563 78.7333 39.6042 78.525 38.8126C78.3167 38.0209 78.025 37.1876 77.65 36.3126L74.9938 30.1563H58.2438C56.5771 34.3438 55.5771 36.9063 55.2438 37.8438C54.9313 38.7605 54.775 39.4896 54.775 40.0313C54.775 41.1146 55.2125 41.8646 56.0875 42.2813C56.6292 42.5313 57.65 42.7188 59.15 42.8438V44.0001H46.4625ZM99.3313 42.8438C101.935 42.6355 103.55 42.1771 104.175 41.4688C104.8 40.7396 105.113 39.0209 105.113 36.3126V8.59381C105.113 6.28131 104.758 4.79173 104.05 4.12506C103.363 3.43756 101.79 3.01048 99.3313 2.84381V1.65631H117.581V2.84381C115.081 2.96881 113.467 3.38548 112.738 4.09381C112.008 4.80214 111.644 6.30214 111.644 8.59381V21.7188C115.581 18.3646 118.8 15.5105 121.3 13.1563C125.779 8.88548 128.019 6.14589 128.019 4.93756C128.019 4.08339 127.633 3.52089 126.863 3.25006C126.113 2.97923 125.04 2.84381 123.644 2.84381V1.65631H140.394V2.68756C138.352 2.89589 136.738 3.30214 135.55 3.90631C134.383 4.51048 132.758 5.83339 130.675 7.87506L118.519 19.7813L133.425 35.8751C136.196 38.8542 138.081 40.7188 139.081 41.4688C140.081 42.198 141.55 42.6771 143.488 42.9063V44.0001H123.925V42.8438C125.696 42.7813 126.894 42.6459 127.519 42.4376C128.144 42.2084 128.456 41.7709 128.456 41.1251C128.456 40.7709 128.248 40.2292 127.831 39.5001C127.435 38.7709 126.8 37.9271 125.925 36.9688L113.8 23.6563L111.644 25.5001V37.0626C111.644 39.4376 111.998 40.948 112.706 41.5938C113.435 42.2188 115.008 42.6355 117.425 42.8438V44.0001H99.3313V42.8438ZM151.856 42.8438C154.46 42.6563 156.148 42.2709 156.919 41.6876C157.69 41.0834 158.075 39.5417 158.075 37.0626V8.59381C158.075 6.23964 157.69 4.72923 156.919 4.06256C156.148 3.37506 154.46 2.96881 151.856 2.84381V1.65631H170.794V2.84381C168.19 2.96881 166.502 3.37506 165.731 4.06256C164.96 4.72923 164.575 6.23964 164.575 8.59381V37.0626C164.575 39.5417 164.96 41.0834 165.731 41.6876C166.502 42.2709 168.19 42.6563 170.794 42.8438V44.0001H151.856V42.8438ZM179.694 42.8438C182.298 42.6355 183.913 42.1771 184.538 41.4688C185.163 40.7396 185.475 39.0209 185.475 36.3126V8.59381C185.475 6.28131 185.121 4.79173 184.413 4.12506C183.725 3.43756 182.152 3.01048 179.694 2.84381V1.65631H197.944V2.84381C195.444 2.96881 193.829 3.38548 193.1 4.09381C192.371 4.80214 192.006 6.30214 192.006 8.59381V21.7188C195.944 18.3646 199.163 15.5105 201.663 13.1563C206.142 8.88548 208.381 6.14589 208.381 4.93756C208.381 4.08339 207.996 3.52089 207.225 3.25006C206.475 2.97923 205.402 2.84381 204.006 2.84381V1.65631H220.756V2.68756C218.715 2.89589 217.1 3.30214 215.913 3.90631C214.746 4.51048 213.121 5.83339 211.038 7.87506L198.881 19.7813L213.788 35.8751C216.558 38.8542 218.444 40.7188 219.444 41.4688C220.444 42.198 221.913 42.6771 223.85 42.9063V44.0001H204.288V42.8438C206.058 42.7813 207.256 42.6459 207.881 42.4376C208.506 42.2084 208.819 41.7709 208.819 41.1251C208.819 40.7709 208.61 40.2292 208.194 39.5001C207.798 38.7709 207.163 37.9271 206.288 36.9688L194.163 23.6563L192.006 25.5001V37.0626C192.006 39.4376 192.36 40.948 193.069 41.5938C193.798 42.2188 195.371 42.6355 197.788 42.8438V44.0001H179.694V42.8438ZM259.75 27.5626L252.344 9.93756L245.031 27.5626H259.75ZM232.125 44.0001V42.8438C233.771 42.6563 235 42.0313 235.812 40.9688C236.646 39.9063 238.062 37.0209 240.062 32.3126L253.406 0.906311H254.656L270.594 37.1876C271.656 39.6042 272.5 41.1042 273.125 41.6876C273.771 42.2501 274.844 42.6355 276.344 42.8438V44.0001H260.062V42.8438C261.938 42.6771 263.146 42.4792 263.688 42.2501C264.229 42.0001 264.5 41.4063 264.5 40.4688C264.5 40.1563 264.396 39.6042 264.188 38.8126C263.979 38.0209 263.688 37.1876 263.312 36.3126L260.656 30.1563H243.906C242.24 34.3438 241.24 36.9063 240.906 37.8438C240.594 38.7605 240.438 39.4896 240.438 40.0313C240.438 41.1146 240.875 41.8646 241.75 42.2813C242.292 42.5313 243.312 42.7188 244.812 42.8438V44.0001H232.125Z" fill="#264921"/>
<path d="M302.869 41.6876C306.14 41.6876 308.879 41.0521 311.087 39.7813C313.296 38.5105 314.4 36.073 314.4 32.4688C314.4 28.8855 313.108 26.4376 310.525 25.1251C307.942 23.8126 304.65 23.1563 300.65 23.1563C299.671 23.1563 299.046 23.1563 298.775 23.1563C298.525 23.1563 298.129 23.1459 297.587 23.1251V39.0626C297.587 40.1667 297.9 40.8855 298.525 41.2188C299.15 41.5313 300.598 41.6876 302.869 41.6876ZM284.931 42.8438C287.515 42.698 289.181 42.3021 289.931 41.6563C290.702 40.9896 291.087 39.4584 291.087 37.0626V8.59381C291.087 6.23964 290.702 4.72923 289.931 4.06256C289.181 3.37506 287.515 2.96881 284.931 2.84381V1.65631H302.869C307.994 1.65631 312.056 2.47923 315.056 4.12506C318.077 5.77089 319.587 8.60423 319.587 12.6251C319.587 15.6459 318.535 17.9376 316.431 19.5001C315.244 20.3959 313.462 21.1355 311.087 21.7188C314.025 22.4271 316.535 23.6146 318.619 25.2813C320.702 26.9271 321.744 29.2396 321.744 32.2188C321.744 37.2188 319.431 40.6563 314.806 42.5313C312.369 43.5105 309.369 44.0001 305.806 44.0001H284.931V42.8438ZM303.681 20.5938C305.827 20.5521 307.608 20.2084 309.025 19.5626C311.733 18.3126 313.087 16.073 313.087 12.8438C313.087 9.03131 311.525 6.45839 308.4 5.12506C306.671 4.39589 304.046 4.03131 300.525 4.03131C299.192 4.03131 298.369 4.14589 298.056 4.37506C297.744 4.60423 297.587 5.22923 297.587 6.25006V20.6876L303.681 20.5938ZM333.956 42.8438C336.56 42.6563 338.248 42.2709 339.019 41.6876C339.79 41.0834 340.175 39.5417 340.175 37.0626V8.59381C340.175 6.23964 339.79 4.72923 339.019 4.06256C338.248 3.37506 336.56 2.96881 333.956 2.84381V1.65631H352.894V2.84381C350.29 2.96881 348.602 3.37506 347.831 4.06256C347.06 4.72923 346.675 6.23964 346.675 8.59381V37.0626C346.675 39.5417 347.06 41.0834 347.831 41.6876C348.602 42.2709 350.29 42.6563 352.894 42.8438V44.0001H333.956V42.8438ZM369.794 22.8438C369.794 29.573 371.117 34.5521 373.763 37.7813C376.408 40.9896 379.658 42.5938 383.513 42.5938C387.283 42.5938 390.502 41.0313 393.169 37.9063C395.856 34.7605 397.2 29.7396 397.2 22.8438C397.2 15.8646 395.846 10.823 393.138 7.71881C390.429 4.61464 387.221 3.06256 383.513 3.06256C379.679 3.06256 376.429 4.67714 373.763 7.90631C371.117 11.1146 369.794 16.0938 369.794 22.8438ZM362.544 22.8438C362.544 16.0105 364.69 10.5313 368.981 6.40631C372.919 2.63548 377.763 0.750061 383.513 0.750061C389.283 0.750061 394.138 2.64589 398.075 6.43756C402.346 10.5417 404.481 16.0105 404.481 22.8438C404.481 29.7813 402.273 35.3021 397.856 39.4063C393.898 43.073 389.117 44.9063 383.513 44.9063C377.513 44.9063 372.533 42.8751 368.575 38.8126C364.554 34.6667 362.544 29.3438 362.544 22.8438Z" fill="#E8CBB2"/>
</svg>
