<svg width="344" height="60" viewBox="0 0 344 60" fill="none" xmlns="http://www.w3.org/2000/svg">
<path d="M38.324 47C37.3 47 36.308 46.712 35.348 46.136C34.42 45.56 33.668 44.648 33.092 43.4C32.516 42.152 32.228 40.552 32.228 38.6C32.228 37 32.42 35.208 32.804 33.224C33.188 31.208 33.684 29.192 34.292 27.176C34.932 25.16 35.62 23.336 36.356 21.704C34.148 23.176 32.212 25.208 30.548 27.8C28.884 30.392 27.444 33.4 26.228 36.824C26.484 37.848 26.692 38.808 26.852 39.704C27.012 40.6 27.092 41.416 27.092 42.152C27.092 43.56 26.756 44.664 26.084 45.464C25.412 46.264 24.244 46.664 22.58 46.664C21.108 46.664 20.02 46.344 19.316 45.704C18.644 45.032 18.308 44.104 18.308 42.92C18.308 42.152 18.436 41.272 18.692 40.28C18.98 39.288 19.38 38.216 19.892 37.064C19.316 35.368 18.612 33.464 17.78 31.352C16.948 29.208 15.78 26.872 14.276 24.344C13.828 26.232 13.364 28.12 12.884 30.008C12.436 31.864 12.052 33.592 11.732 35.192C11.444 36.76 11.3 38.088 11.3 39.176C11.3 40.936 11.78 41.816 12.74 41.816L12.836 41.912C12.836 42.968 12.564 43.88 12.02 44.648C11.508 45.384 10.836 45.96 10.004 46.376C9.204 46.76 8.356 46.952 7.46 46.952C6.596 46.952 5.748 46.744 4.916 46.328C4.116 45.912 3.46 45.272 2.948 44.408C2.436 43.512 2.18 42.376 2.18 41C2.18 39.688 2.404 38.264 2.852 36.728C3.332 35.16 3.924 33.576 4.628 31.976C5.332 30.344 6.052 28.76 6.788 27.224C7.524 25.656 8.18 24.2 8.756 22.856C9.364 21.48 9.764 20.28 9.956 19.256C9.316 18.808 8.628 18.584 7.892 18.584C7.284 18.584 6.66 18.792 6.02 19.208C5.412 19.592 4.836 20.248 4.292 21.176L3.956 21.032C3.988 19.4 4.34 17.912 5.012 16.568C5.684 15.192 6.564 14.104 7.652 13.304C8.772 12.472 9.988 12.056 11.3 12.056C12.804 12.056 14.356 12.712 15.956 14.024C17.556 15.336 19.028 17.496 20.372 20.504C21.748 23.512 22.852 27.576 23.684 32.696C24.9 28.76 26.212 25.464 27.62 22.808C29.028 20.152 30.468 18.04 31.94 16.472C33.444 14.904 34.916 13.784 36.356 13.112C37.828 12.408 39.22 12.056 40.532 12.056C42.164 12.056 43.62 12.456 44.9 13.256C46.212 14.056 47.236 15.064 47.972 16.28C48.74 17.496 49.124 18.712 49.124 19.928C48.324 19.704 47.524 19.544 46.724 19.448C45.956 19.352 45.204 19.304 44.468 19.304C43.732 19.304 43.028 19.352 42.356 19.448C42.068 20.92 41.764 22.568 41.444 24.392C41.124 26.184 40.836 27.992 40.58 29.816C40.356 31.64 40.244 33.32 40.244 34.856C40.244 36.424 40.404 37.704 40.724 38.696C41.044 39.688 41.604 40.184 42.404 40.184C42.916 40.184 43.428 39.96 43.94 39.512C44.484 39.064 44.884 38.376 45.14 37.448L45.476 37.592C45.476 39.704 45.124 41.464 44.42 42.872C43.716 44.248 42.804 45.288 41.684 45.992C40.596 46.664 39.476 47 38.324 47ZM53.3484 47.192C51.9084 47.192 50.6924 46.6 49.7004 45.416C48.7404 44.232 48.2604 42.648 48.2604 40.664C48.2604 39.576 48.3884 38.408 48.6444 37.16C48.9004 35.912 49.1564 34.728 49.4124 33.608C49.6364 32.776 49.8124 32.008 49.9404 31.304C50.1004 30.568 50.1804 29.976 50.1804 29.528C50.1804 28.952 50.0524 28.536 49.7964 28.28C49.5724 28.024 49.3004 27.896 48.9804 27.896C48.6604 27.896 48.3404 28.008 48.0204 28.232C47.7004 28.424 47.4444 28.728 47.2524 29.144L46.8684 29C46.8684 27.688 47.1884 26.568 47.8284 25.64C48.4684 24.712 49.2844 24.008 50.2764 23.528C51.2684 23.048 52.2764 22.808 53.3004 22.808C54.1324 22.808 54.9324 22.984 55.7004 23.336C56.4684 23.656 57.0924 24.168 57.5724 24.872C58.0844 25.576 58.3404 26.456 58.3404 27.512C58.3404 28.152 58.2444 28.92 58.0524 29.816C57.8924 30.712 57.7004 31.64 57.4764 32.6C57.2524 33.592 57.0284 34.6 56.8044 35.624C56.6124 36.616 56.5164 37.496 56.5164 38.264C56.5164 38.968 56.6284 39.544 56.8524 39.992C57.0764 40.44 57.4124 40.664 57.8604 40.664C58.6924 40.664 59.6204 39.896 60.6444 38.36C61.7004 36.824 62.5484 34.76 63.1884 32.168C63.3164 31.656 63.4284 31.112 63.5244 30.536C63.6204 29.96 63.6684 29.368 63.6684 28.76C63.6684 28.28 63.6364 27.8 63.5724 27.32C63.5084 26.808 63.4124 26.296 63.2844 25.784V25.448C63.7964 24.584 64.4524 23.928 65.2524 23.48C66.0844 23.032 66.9164 22.808 67.7484 22.808C68.8684 22.808 69.8764 23.192 70.7724 23.96C71.6684 24.728 72.1164 25.848 72.1164 27.32C72.1164 28.184 71.9564 29.192 71.6364 30.344C71.3164 31.464 70.9644 32.632 70.5804 33.848C70.1964 35.032 69.8444 36.2 69.5244 37.352C69.2044 38.504 69.0444 39.528 69.0444 40.424C69.0444 41.736 69.5084 42.392 70.4364 42.392C70.6924 42.392 70.9964 42.328 71.3484 42.2C71.7324 42.04 72.0844 41.736 72.4044 41.288L72.7404 41.384C72.7404 42.536 72.4204 43.56 71.7804 44.456C71.1724 45.32 70.3884 45.992 69.4284 46.472C68.4684 46.952 67.4764 47.192 66.4524 47.192C65.1404 47.192 63.9564 46.712 62.9004 45.752C61.8764 44.792 61.3644 43.224 61.3644 41.048V40.952C60.0524 43.192 58.6924 44.792 57.2844 45.752C55.8764 46.712 54.5644 47.192 53.3484 47.192ZM91.8358 47.24C90.7158 47.24 89.7398 46.872 88.9078 46.136C88.0758 45.4 87.6598 44.2 87.6598 42.536C87.6598 42.376 87.6598 42.216 87.6598 42.056C87.6598 41.896 87.6758 41.736 87.7078 41.576C86.7478 43.496 85.6598 44.92 84.4438 45.848C83.2598 46.744 82.0598 47.192 80.8438 47.192C79.7238 47.192 78.6678 46.808 77.6758 46.04C76.6838 45.24 75.8838 44.072 75.2758 42.536C74.6678 41 74.3638 39.144 74.3638 36.968C74.3638 34.728 74.6678 32.728 75.2758 30.968C75.9158 29.208 76.7478 27.72 77.7718 26.504C78.7958 25.288 79.9158 24.376 81.1318 23.768C82.3478 23.128 83.5318 22.808 84.6838 22.808C85.9638 22.808 87.1158 23.208 88.1398 24.008C89.1638 24.776 89.8678 26.008 90.2518 27.704C90.3478 27.16 90.4118 26.664 90.4438 26.216C90.5078 25.768 90.5398 25.464 90.5398 25.304C90.5718 24.44 91.0038 23.8 91.8358 23.384C92.6998 22.968 93.6438 22.76 94.6678 22.76C95.5638 22.76 96.4118 22.936 97.2118 23.288C98.0118 23.64 98.5558 24.232 98.8438 25.064L98.9398 25.352C98.5558 26.216 98.1718 27.256 97.7878 28.472C97.4038 29.688 97.0518 30.968 96.7318 32.312C96.4118 33.624 96.1558 34.92 95.9638 36.2C95.7718 37.448 95.6758 38.552 95.6758 39.512C95.6758 40.568 95.7878 41.304 96.0118 41.72C96.2358 42.104 96.5078 42.296 96.8278 42.296C97.3718 42.296 97.8678 41.912 98.3158 41.144L98.6998 41.336C98.6998 42.424 98.3478 43.416 97.6438 44.312C96.9398 45.208 96.0598 45.928 95.0038 46.472C93.9478 46.984 92.8918 47.24 91.8358 47.24ZM84.0118 41.144C84.8438 41.144 85.7558 40.408 86.7478 38.936C87.7718 37.432 88.6518 35.288 89.3878 32.504C89.4518 32.216 89.5158 31.944 89.5798 31.688C89.6438 31.4 89.6918 31.128 89.7238 30.872C89.2118 29.688 88.6678 28.856 88.0918 28.376C87.5478 27.864 87.0038 27.608 86.4598 27.608C85.6598 27.608 84.9078 28.04 84.2038 28.904C83.5318 29.736 82.9718 30.792 82.5238 32.072C82.1078 33.352 81.8998 34.632 81.8998 35.912C81.8998 37.672 82.0918 38.984 82.4758 39.848C82.8918 40.712 83.4038 41.144 84.0118 41.144ZM107.595 47.192C106.571 47.192 105.595 46.968 104.667 46.52C103.771 46.04 103.035 45.304 102.459 44.312C101.915 43.32 101.643 42.056 101.643 40.52C101.643 39.688 101.723 38.6 101.883 37.256C102.043 35.912 102.251 34.44 102.507 32.84C102.795 31.24 103.083 29.64 103.371 28.04C102.731 28.072 102.107 28.136 101.499 28.232C100.923 28.328 100.347 28.44 99.7708 28.568L99.6748 28.232C100.315 27.464 100.987 26.808 101.691 26.264C102.395 25.72 103.131 25.272 103.899 24.92C104.315 22.808 104.667 20.984 104.955 19.448C105.243 17.88 105.387 16.952 105.387 16.664C105.387 16.12 105.803 15.672 106.635 15.32C107.499 14.968 108.459 14.792 109.515 14.792C110.443 14.792 111.307 14.968 112.107 15.32C112.939 15.672 113.499 16.264 113.787 17.096C113.595 17.288 113.323 18.008 112.971 19.256C112.619 20.472 112.251 21.96 111.867 23.72C112.475 23.752 113.099 23.784 113.739 23.816C114.379 23.848 115.035 23.896 115.707 23.96C115.771 24.152 115.819 24.36 115.851 24.584C115.883 24.808 115.899 25.048 115.899 25.304C115.899 25.784 115.819 26.312 115.659 26.888C115.531 27.432 115.371 27.928 115.179 28.376C114.411 28.312 113.691 28.248 113.019 28.184C112.347 28.088 111.691 28.024 111.051 27.992C110.795 29.368 110.555 30.744 110.331 32.12C110.139 33.496 109.979 34.744 109.851 35.864C109.755 36.984 109.707 37.864 109.707 38.504C109.707 39.848 109.947 40.744 110.427 41.192C110.939 41.64 111.547 41.864 112.251 41.864C112.891 41.864 113.467 41.736 113.979 41.48C114.491 41.224 114.859 40.92 115.083 40.568L115.563 40.712C115.371 42.024 114.859 43.176 114.027 44.168C113.195 45.128 112.203 45.88 111.051 46.424C109.899 46.936 108.747 47.192 107.595 47.192ZM123.557 47.192C122.533 47.192 121.557 46.968 120.629 46.52C119.733 46.04 118.997 45.304 118.421 44.312C117.877 43.32 117.605 42.056 117.605 40.52C117.605 39.688 117.685 38.6 117.845 37.256C118.005 35.912 118.213 34.44 118.469 32.84C118.757 31.24 119.045 29.64 119.333 28.04C118.693 28.072 118.069 28.136 117.461 28.232C116.885 28.328 116.309 28.44 115.733 28.568L115.637 28.232C116.277 27.464 116.949 26.808 117.653 26.264C118.357 25.72 119.093 25.272 119.861 24.92C120.277 22.808 120.629 20.984 120.917 19.448C121.205 17.88 121.349 16.952 121.349 16.664C121.349 16.12 121.765 15.672 122.597 15.32C123.461 14.968 124.421 14.792 125.477 14.792C126.405 14.792 127.269 14.968 128.069 15.32C128.901 15.672 129.461 16.264 129.749 17.096C129.557 17.288 129.285 18.008 128.933 19.256C128.581 20.472 128.213 21.96 127.829 23.72C128.437 23.752 129.061 23.784 129.701 23.816C130.341 23.848 130.997 23.896 131.669 23.96C131.733 24.152 131.781 24.36 131.813 24.584C131.845 24.808 131.861 25.048 131.861 25.304C131.861 25.784 131.781 26.312 131.621 26.888C131.493 27.432 131.333 27.928 131.141 28.376C130.373 28.312 129.653 28.248 128.981 28.184C128.309 28.088 127.653 28.024 127.013 27.992C126.757 29.368 126.517 30.744 126.293 32.12C126.101 33.496 125.941 34.744 125.813 35.864C125.717 36.984 125.669 37.864 125.669 38.504C125.669 39.848 125.909 40.744 126.389 41.192C126.901 41.64 127.509 41.864 128.213 41.864C128.853 41.864 129.429 41.736 129.941 41.48C130.453 41.224 130.821 40.92 131.045 40.568L131.525 40.712C131.333 42.024 130.821 43.176 129.989 44.168C129.157 45.128 128.165 45.88 127.013 46.424C125.861 46.936 124.709 47.192 123.557 47.192ZM149.94 47.24C148.82 47.24 147.844 46.872 147.012 46.136C146.18 45.4 145.764 44.2 145.764 42.536C145.764 42.376 145.764 42.216 145.764 42.056C145.764 41.896 145.78 41.736 145.812 41.576C144.852 43.496 143.764 44.92 142.548 45.848C141.364 46.744 140.164 47.192 138.948 47.192C137.828 47.192 136.772 46.808 135.78 46.04C134.788 45.24 133.988 44.072 133.38 42.536C132.772 41 132.468 39.144 132.468 36.968C132.468 34.728 132.772 32.728 133.38 30.968C134.02 29.208 134.852 27.72 135.876 26.504C136.9 25.288 138.02 24.376 139.236 23.768C140.452 23.128 141.636 22.808 142.788 22.808C144.068 22.808 145.22 23.208 146.244 24.008C147.268 24.776 147.972 26.008 148.356 27.704C148.452 27.16 148.516 26.664 148.548 26.216C148.612 25.768 148.644 25.464 148.644 25.304C148.676 24.44 149.108 23.8 149.94 23.384C150.804 22.968 151.748 22.76 152.772 22.76C153.668 22.76 154.516 22.936 155.316 23.288C156.116 23.64 156.66 24.232 156.948 25.064L157.044 25.352C156.66 26.216 156.276 27.256 155.892 28.472C155.508 29.688 155.156 30.968 154.836 32.312C154.516 33.624 154.26 34.92 154.068 36.2C153.876 37.448 153.78 38.552 153.78 39.512C153.78 40.568 153.892 41.304 154.116 41.72C154.34 42.104 154.612 42.296 154.932 42.296C155.476 42.296 155.972 41.912 156.42 41.144L156.804 41.336C156.804 42.424 156.452 43.416 155.748 44.312C155.044 45.208 154.164 45.928 153.108 46.472C152.052 46.984 150.996 47.24 149.94 47.24ZM142.116 41.144C142.948 41.144 143.86 40.408 144.852 38.936C145.876 37.432 146.756 35.288 147.492 32.504C147.556 32.216 147.62 31.944 147.684 31.688C147.748 31.4 147.796 31.128 147.828 30.872C147.316 29.688 146.772 28.856 146.196 28.376C145.652 27.864 145.108 27.608 144.564 27.608C143.764 27.608 143.012 28.04 142.308 28.904C141.636 29.736 141.076 30.792 140.628 32.072C140.212 33.352 140.004 34.632 140.004 35.912C140.004 37.672 140.196 38.984 140.58 39.848C140.996 40.712 141.508 41.144 142.116 41.144ZM164.218 47.192C163.066 47.192 162.042 46.728 161.146 45.8C160.25 44.84 159.802 43.496 159.802 41.768C159.802 40.936 159.898 39.992 160.09 38.936C160.282 37.88 160.506 36.808 160.762 35.72C161.018 34.6 161.242 33.56 161.434 32.6C161.626 31.608 161.722 30.792 161.722 30.152C161.722 29.48 161.594 28.952 161.338 28.568C161.114 28.152 160.81 27.944 160.426 27.944C159.818 27.944 159.194 28.36 158.554 29.192L158.266 29C158.234 28.488 158.346 27.88 158.602 27.176C158.858 26.472 159.258 25.8 159.802 25.16C160.346 24.488 161.034 23.928 161.866 23.48C162.73 23.032 163.738 22.808 164.89 22.808C166.586 22.808 167.818 23.304 168.586 24.296C169.354 25.256 169.738 26.424 169.738 27.8C169.738 28.024 169.722 28.264 169.69 28.52C169.69 28.744 169.674 28.968 169.642 29.192C170.794 27.112 171.994 25.528 173.242 24.44C174.522 23.32 175.706 22.76 176.794 22.76C177.818 22.76 178.57 23.16 179.05 23.96C179.53 24.76 179.77 25.72 179.77 26.84C179.77 27.864 179.562 28.904 179.146 29.96C178.762 31.016 178.17 31.896 177.37 32.6C176.602 33.272 175.658 33.592 174.538 33.56L174.346 33.464C174.314 32.632 174.042 31.976 173.53 31.496C173.018 31.016 172.442 30.776 171.802 30.776C170.938 30.776 170.122 31.208 169.354 32.072C168.618 32.936 168.25 34.184 168.25 35.816C168.25 36.808 168.362 37.88 168.586 39.032C168.81 40.184 168.922 41.16 168.922 41.96C168.922 42.92 168.698 43.8 168.25 44.6C167.802 45.4 167.226 46.04 166.522 46.52C165.818 46.968 165.05 47.192 164.218 47.192Z" fill="#FF5227"/>
<g clip-path="url(#clip0_6004_8148)">
<rect x="186.5" width="157" height="60" rx="6" fill="#FF5227"/>
<path d="M212.438 48.288C210.422 48.288 208.678 47.888 207.206 47.088C205.766 46.256 204.566 45.136 203.606 43.728C202.678 42.288 201.99 40.672 201.542 38.88C201.126 37.056 200.95 35.168 201.014 33.216C201.142 29.728 201.782 26.72 202.934 24.192C204.086 21.664 205.542 19.584 207.302 17.952C209.062 16.32 210.95 15.12 212.966 14.352C215.014 13.552 216.982 13.152 218.87 13.152C220.47 13.152 221.91 13.424 223.19 13.968C224.502 14.48 225.542 15.248 226.31 16.272C227.078 17.264 227.462 18.48 227.462 19.92C227.462 21.04 227.126 22.128 226.454 23.184C225.814 24.208 224.822 25.056 223.478 25.728C222.166 26.368 220.47 26.688 218.39 26.688C218.742 25.664 218.998 24.768 219.158 24C219.318 23.232 219.398 22.576 219.398 22.032C219.398 20.912 219.142 20.16 218.63 19.776C218.118 19.36 217.478 19.152 216.71 19.152C215.782 19.152 214.902 19.488 214.07 20.16C213.238 20.832 212.486 21.744 211.814 22.896C211.174 24.016 210.662 25.264 210.278 26.64C209.894 28.016 209.67 29.408 209.606 30.816C209.478 34.368 209.99 37.056 211.142 38.88C212.294 40.704 213.782 41.616 215.606 41.616C217.014 41.616 218.566 41.04 220.262 39.888C221.99 38.736 223.686 36.992 225.35 34.656L225.974 34.944C225.558 37.824 224.646 40.256 223.238 42.24C221.83 44.224 220.166 45.728 218.246 46.752C216.358 47.776 214.422 48.288 212.438 48.288ZM232.519 48.192C231.367 48.192 230.343 47.728 229.447 46.8C228.551 45.84 228.103 44.496 228.103 42.768C228.103 41.936 228.199 40.992 228.391 39.936C228.583 38.88 228.807 37.808 229.063 36.72C229.319 35.6 229.543 34.56 229.735 33.6C229.927 32.608 230.023 31.792 230.023 31.152C230.023 30.48 229.895 29.952 229.639 29.568C229.415 29.152 229.111 28.944 228.727 28.944C228.119 28.944 227.495 29.36 226.855 30.192L226.567 30C226.535 29.488 226.647 28.88 226.903 28.176C227.159 27.472 227.559 26.8 228.103 26.16C228.647 25.488 229.335 24.928 230.167 24.48C231.031 24.032 232.039 23.808 233.191 23.808C234.887 23.808 236.119 24.304 236.887 25.296C237.655 26.256 238.039 27.424 238.039 28.8C238.039 29.024 238.023 29.264 237.991 29.52C237.991 29.744 237.975 29.968 237.943 30.192C239.095 28.112 240.295 26.528 241.543 25.44C242.823 24.32 244.007 23.76 245.095 23.76C246.119 23.76 246.871 24.16 247.351 24.96C247.831 25.76 248.071 26.72 248.071 27.84C248.071 28.864 247.863 29.904 247.447 30.96C247.063 32.016 246.471 32.896 245.671 33.6C244.903 34.272 243.959 34.592 242.839 34.56L242.647 34.464C242.615 33.632 242.343 32.976 241.831 32.496C241.319 32.016 240.743 31.776 240.103 31.776C239.239 31.776 238.423 32.208 237.655 33.072C236.919 33.936 236.551 35.184 236.551 36.816C236.551 37.808 236.663 38.88 236.887 40.032C237.111 41.184 237.223 42.16 237.223 42.96C237.223 43.92 236.999 44.8 236.551 45.6C236.103 46.4 235.527 47.04 234.823 47.52C234.119 47.968 233.351 48.192 232.519 48.192ZM265.4 48.24C264.28 48.24 263.304 47.872 262.472 47.136C261.64 46.4 261.224 45.2 261.224 43.536C261.224 43.376 261.224 43.216 261.224 43.056C261.224 42.896 261.24 42.736 261.272 42.576C260.312 44.496 259.224 45.92 258.008 46.848C256.824 47.744 255.624 48.192 254.408 48.192C253.288 48.192 252.232 47.808 251.24 47.04C250.248 46.24 249.448 45.072 248.84 43.536C248.232 42 247.928 40.144 247.928 37.968C247.928 35.728 248.232 33.728 248.84 31.968C249.48 30.208 250.312 28.72 251.336 27.504C252.36 26.288 253.48 25.376 254.696 24.768C255.912 24.128 257.096 23.808 258.248 23.808C259.528 23.808 260.68 24.208 261.704 25.008C262.728 25.776 263.432 27.008 263.816 28.704C263.912 28.16 263.976 27.664 264.008 27.216C264.072 26.768 264.104 26.464 264.104 26.304C264.136 25.44 264.568 24.8 265.4 24.384C266.264 23.968 267.208 23.76 268.232 23.76C269.128 23.76 269.976 23.936 270.776 24.288C271.576 24.64 272.12 25.232 272.408 26.064L272.504 26.352C272.12 27.216 271.736 28.256 271.352 29.472C270.968 30.688 270.616 31.968 270.296 33.312C269.976 34.624 269.72 35.92 269.528 37.2C269.336 38.448 269.24 39.552 269.24 40.512C269.24 41.568 269.352 42.304 269.576 42.72C269.8 43.104 270.072 43.296 270.392 43.296C270.936 43.296 271.432 42.912 271.88 42.144L272.264 42.336C272.264 43.424 271.912 44.416 271.208 45.312C270.504 46.208 269.624 46.928 268.568 47.472C267.512 47.984 266.456 48.24 265.4 48.24ZM257.576 42.144C258.408 42.144 259.32 41.408 260.312 39.936C261.336 38.432 262.216 36.288 262.952 33.504C263.016 33.216 263.08 32.944 263.144 32.688C263.208 32.4 263.256 32.128 263.288 31.872C262.776 30.688 262.232 29.856 261.656 29.376C261.112 28.864 260.568 28.608 260.024 28.608C259.224 28.608 258.472 29.04 257.768 29.904C257.096 30.736 256.536 31.792 256.088 33.072C255.672 34.352 255.464 35.632 255.464 36.912C255.464 38.672 255.656 39.984 256.04 40.848C256.456 41.712 256.968 42.144 257.576 42.144ZM278.445 57.744C277.517 57.744 276.637 57.568 275.805 57.216C274.973 56.896 274.397 56.4 274.077 55.728C274.845 52.464 275.469 49.568 275.949 47.04C276.461 44.512 276.861 42.256 277.149 40.272C277.437 38.288 277.645 36.48 277.773 34.848C277.901 33.184 277.981 31.584 278.013 30.048C276.925 30.112 275.885 30.224 274.893 30.384C273.901 30.512 273.037 30.704 272.301 30.96L272.205 30.624C273.133 29.696 274.093 28.928 275.085 28.32C276.077 27.68 277.069 27.168 278.061 26.784V23.136C278.061 20.672 278.557 18.672 279.549 17.136C280.541 15.568 281.805 14.416 283.341 13.68C284.909 12.912 286.525 12.528 288.189 12.528C290.397 12.528 292.045 13.056 293.133 14.112C294.253 15.168 294.813 16.352 294.813 17.664C294.813 18.624 294.509 19.552 293.901 20.448C293.325 21.344 292.445 22.096 291.261 22.704C290.077 23.28 288.589 23.568 286.797 23.568C287.309 22.64 287.693 21.712 287.949 20.784C288.237 19.856 288.381 19.04 288.381 18.336C288.381 17.792 288.301 17.36 288.141 17.04C287.981 16.688 287.757 16.512 287.469 16.512C286.861 16.512 286.269 17.28 285.693 18.816C285.149 20.32 284.877 22.304 284.877 24.768V25.68C285.805 25.648 286.685 25.664 287.517 25.728C288.381 25.792 289.181 25.856 289.917 25.92C289.981 26.144 290.029 26.384 290.061 26.64C290.093 26.896 290.109 27.152 290.109 27.408C290.109 27.888 290.045 28.368 289.917 28.848C289.789 29.328 289.613 29.824 289.389 30.336C288.813 30.272 288.157 30.208 287.421 30.144C286.685 30.08 285.901 30.032 285.069 30V31.056C285.069 32.816 284.989 34.848 284.829 37.152C284.701 39.456 284.445 42.192 284.061 45.36C283.677 48.528 283.085 52.304 282.285 56.688C281.293 57.392 280.013 57.744 278.445 57.744ZM298.386 48.192C297.362 48.192 296.386 47.968 295.458 47.52C294.562 47.04 293.826 46.304 293.25 45.312C292.706 44.32 292.434 43.056 292.434 41.52C292.434 40.688 292.514 39.6 292.674 38.256C292.834 36.912 293.042 35.44 293.298 33.84C293.586 32.24 293.874 30.64 294.162 29.04C293.522 29.072 292.898 29.136 292.29 29.232C291.714 29.328 291.138 29.44 290.562 29.568L290.466 29.232C291.106 28.464 291.778 27.808 292.482 27.264C293.186 26.72 293.922 26.272 294.69 25.92C295.106 23.808 295.458 21.984 295.746 20.448C296.034 18.88 296.178 17.952 296.178 17.664C296.178 17.12 296.594 16.672 297.426 16.32C298.29 15.968 299.25 15.792 300.306 15.792C301.234 15.792 302.098 15.968 302.898 16.32C303.73 16.672 304.29 17.264 304.578 18.096C304.386 18.288 304.114 19.008 303.762 20.256C303.41 21.472 303.042 22.96 302.658 24.72C303.266 24.752 303.89 24.784 304.53 24.816C305.17 24.848 305.826 24.896 306.498 24.96C306.562 25.152 306.61 25.36 306.642 25.584C306.674 25.808 306.69 26.048 306.69 26.304C306.69 26.784 306.61 27.312 306.45 27.888C306.322 28.432 306.162 28.928 305.97 29.376C305.202 29.312 304.482 29.248 303.81 29.184C303.138 29.088 302.482 29.024 301.842 28.992C301.586 30.368 301.346 31.744 301.122 33.12C300.93 34.496 300.77 35.744 300.642 36.864C300.546 37.984 300.498 38.864 300.498 39.504C300.498 40.848 300.738 41.744 301.218 42.192C301.73 42.64 302.338 42.864 303.042 42.864C303.682 42.864 304.258 42.736 304.77 42.48C305.282 42.224 305.65 41.92 305.874 41.568L306.354 41.712C306.162 43.024 305.65 44.176 304.818 45.168C303.986 46.128 302.994 46.88 301.842 47.424C300.69 47.936 299.538 48.192 298.386 48.192ZM315.692 48.432C313.708 48.432 312.06 48.16 310.748 47.616C309.436 47.072 308.46 46.384 307.82 45.552C307.18 44.688 306.86 43.824 306.86 42.96C306.86 41.744 307.404 40.672 308.492 39.744C309.58 38.784 311.052 38.304 312.908 38.304C312.908 39.936 313.116 41.248 313.532 42.24C313.948 43.2 314.476 43.888 315.116 44.304C315.788 44.72 316.428 44.928 317.036 44.928C317.772 44.928 318.38 44.72 318.86 44.304C319.372 43.856 319.628 43.312 319.628 42.672C319.628 41.776 319.164 40.992 318.236 40.32C317.308 39.648 316.108 38.896 314.636 38.064C313.9 37.616 313.1 37.104 312.236 36.528C311.372 35.92 310.636 35.2 310.028 34.368C309.42 33.504 309.116 32.48 309.116 31.296C309.116 30.048 309.468 28.944 310.172 27.984C310.908 27.024 311.868 26.224 313.052 25.584C314.236 24.912 315.516 24.416 316.892 24.096C318.268 23.744 319.612 23.568 320.924 23.568C323.388 23.568 325.244 24.064 326.492 25.056C327.74 26.048 328.364 27.104 328.364 28.224C328.364 29.184 327.884 30.048 326.924 30.816C325.964 31.584 324.492 31.968 322.508 31.968C322.54 30.336 322.204 29.152 321.5 28.416C320.796 27.648 320.044 27.264 319.244 27.264C318.668 27.264 318.188 27.44 317.804 27.792C317.42 28.144 317.228 28.656 317.228 29.328C317.228 30.096 317.468 30.768 317.948 31.344C318.46 31.888 319.084 32.384 319.82 32.832C320.588 33.248 321.372 33.648 322.172 34.032C323.26 34.544 324.284 35.088 325.244 35.664C326.204 36.24 326.988 36.896 327.596 37.632C328.204 38.368 328.508 39.264 328.508 40.32C328.508 41.76 327.916 43.104 326.732 44.352C325.58 45.568 324.028 46.56 322.076 47.328C320.124 48.064 317.996 48.432 315.692 48.432Z" fill="white"/>
</g>
<defs>
<clipPath id="clip0_6004_8148">
<rect x="186.5" width="157" height="60" rx="6" fill="white"/>
</clipPath>
</defs>
</svg>
